<svg width="20" height="20" viewBox="0 0 20 20" fill="none" xmlns="http://www.w3.org/2000/svg">
<path d="M18.4999 13.1C18.2626 12.9821 17.9881 12.9633 17.7368 13.0477C17.4855 13.1321 17.2781 13.3127 17.1599 13.55C16.527 14.8282 15.5638 15.914 14.3702 16.6948C13.1766 17.4756 11.7959 17.9231 10.3712 17.991C8.9465 18.0588 7.52955 17.7445 6.26714 17.0806C5.00473 16.4167 3.94277 15.4274 3.19126 14.2151C2.43974 13.0028 2.026 11.6116 1.9929 10.1857C1.95979 8.75975 2.30852 7.35088 3.00296 6.10502C3.6974 4.85915 4.71231 3.82161 5.94254 3.09985C7.17278 2.37809 8.57361 1.99837 9.99994 2.00001C11.4911 1.99355 12.9538 2.40764 14.2203 3.19476C15.4867 3.98188 16.5056 5.11012 17.1599 6.45001C17.2793 6.6887 17.4886 6.87021 17.7417 6.9546C17.9949 7.03899 18.2712 7.01936 18.5099 6.90001C18.7486 6.78066 18.9301 6.57138 19.0145 6.31821C19.0989 6.06503 19.0793 5.7887 18.9599 5.55001C17.9566 3.53075 16.3002 1.90987 14.2597 0.950438C12.2192 -0.00899237 9.91428 -0.250651 7.71915 0.264685C5.52401 0.780021 3.56747 2.0221 2.16707 3.78933C0.766678 5.55656 0.00463867 7.74519 0.00463867 10C0.00463867 12.2548 0.766678 14.4435 2.16707 16.2107C3.56747 17.9779 5.52401 19.22 7.71915 19.7353C9.91428 20.2507 12.2192 20.009 14.2597 19.0496C16.3002 18.0901 17.9566 16.4693 18.9599 14.45C19.0195 14.3314 19.0549 14.2021 19.064 14.0696C19.0731 13.9372 19.0557 13.8043 19.0129 13.6786C18.9701 13.5529 18.9027 13.437 18.8146 13.3377C18.7265 13.2384 18.6196 13.1576 18.4999 13.1ZM18.9999 9.00001H9.40994L11.7099 6.71001C11.8032 6.61677 11.8771 6.50608 11.9276 6.38426C11.9781 6.26244 12.004 6.13187 12.004 6.00001C12.004 5.86815 11.9781 5.73758 11.9276 5.61576C11.8771 5.49394 11.8032 5.38325 11.7099 5.29001C11.6167 5.19677 11.506 5.12281 11.3842 5.07235C11.2624 5.02189 11.1318 4.99592 10.9999 4.99592C10.8681 4.99592 10.7375 5.02189 10.6157 5.07235C10.4939 5.12281 10.3832 5.19677 10.2899 5.29001L6.28994 9.29001C6.1989 9.38511 6.12754 9.49726 6.07994 9.62001C5.97993 9.86347 5.97993 10.1365 6.07994 10.38C6.12754 10.5028 6.1989 10.6149 6.28994 10.71L10.2899 14.71C10.3829 14.8037 10.4935 14.8781 10.6154 14.9289C10.7372 14.9797 10.8679 15.0058 10.9999 15.0058C11.132 15.0058 11.2627 14.9797 11.3845 14.9289C11.5064 14.8781 11.617 14.8037 11.7099 14.71C11.8037 14.617 11.8781 14.5064 11.9288 14.3846C11.9796 14.2627 12.0057 14.132 12.0057 14C12.0057 13.868 11.9796 13.7373 11.9288 13.6154C11.8781 13.4936 11.8037 13.383 11.7099 13.29L9.40994 11H18.9999C19.2652 11 19.5195 10.8947 19.7071 10.7071C19.8946 10.5196 19.9999 10.2652 19.9999 10C19.9999 9.73479 19.8946 9.48044 19.7071 9.2929C19.5195 9.10537 19.2652 9.00001 18.9999 9.00001Z" fill="white"/>
</svg>
